<svg width="62" height="36" viewBox="0 0 62 36" fill="none" xmlns="http://www.w3.org/2000/svg">
<path d="M34.5647 20.9788C33.5018 20.9788 32.6052 20.7934 31.8748 20.4228C31.1444 20.0522 30.5967 19.5262 30.2315 18.8449C29.8663 18.1581 29.6837 17.3514 29.6837 16.4248V9.0011H32.5943V16.2367C32.5943 17.0162 32.7551 17.5967 33.0767 17.9782C33.3983 18.3543 33.8943 18.5423 34.5647 18.5423C35.2242 18.5423 35.7148 18.3543 36.0363 17.9782C36.3579 17.5967 36.5187 17.0162 36.5187 16.2367V9.0011H39.4293V16.4248C39.4293 17.3568 39.2467 18.1635 38.8815 18.8449C38.5218 19.5262 37.9795 20.0522 37.2545 20.4228C36.5296 20.7934 35.633 20.9788 34.5647 20.9788ZM41.1626 20.7907V9.0011H44.0732V20.7907H41.1626ZM45.9864 20.7907V9.0011H48.897V20.7907H45.9864ZM55.0125 20.9869C54.0151 20.9869 53.1648 20.8398 52.4617 20.5454C51.7585 20.2457 51.2108 19.8042 50.8183 19.2209C50.4313 18.6323 50.2133 17.9128 50.1643 17.0625H53.1648C53.1757 17.4004 53.252 17.6975 53.3937 17.9537C53.5409 18.2044 53.7507 18.4034 54.0233 18.5505C54.3012 18.6922 54.6392 18.7631 55.0371 18.7631C55.375 18.7631 55.6639 18.7195 55.9037 18.6323C56.1435 18.5396 56.3289 18.4034 56.4597 18.2235C56.5905 18.0382 56.6559 17.8174 56.6559 17.5612C56.6559 17.2942 56.5987 17.0734 56.4842 16.899C56.3752 16.7246 56.1926 16.5829 55.9364 16.4738C55.6802 16.3648 55.3232 16.2695 54.8654 16.1877C53.9061 16.0242 53.1157 15.8171 52.4944 15.5663C51.8785 15.3102 51.3988 14.9531 51.0554 14.4953C50.7175 14.032 50.5485 13.4324 50.5485 12.6966C50.5485 11.879 50.7202 11.1813 51.0636 10.6036C51.4124 10.0204 51.9193 9.57614 52.5843 9.27091C53.2547 8.96022 54.0614 8.80488 55.0044 8.80488C55.9146 8.80488 56.6968 8.94932 57.3508 9.2382C58.0104 9.52163 58.5254 9.9495 58.8961 10.5218C59.2667 11.0887 59.4847 11.7891 59.5502 12.623H56.566C56.5496 12.2905 56.476 12.0071 56.3452 11.7727C56.2144 11.5329 56.0291 11.3503 55.7893 11.2249C55.5494 11.0996 55.2633 11.0369 54.9308 11.0369C54.6365 11.0369 54.3775 11.086 54.1541 11.1841C53.9306 11.2822 53.7562 11.4266 53.6308 11.6174C53.5055 11.8082 53.4428 12.0344 53.4428 12.296C53.4428 12.5304 53.4946 12.7238 53.5981 12.8765C53.7071 13.0236 53.887 13.149 54.1377 13.2526C54.3939 13.3561 54.7509 13.4515 55.2088 13.5387C56.2171 13.7295 57.0374 13.953 57.6697 14.2091C58.302 14.4653 58.7925 14.8332 59.1414 15.3129C59.4902 15.7871 59.6646 16.4193 59.6646 17.2097C59.6646 18.0436 59.482 18.744 59.1168 19.3109C58.7516 19.8723 58.2229 20.292 57.5307 20.57C56.8385 20.8479 55.9991 20.9869 55.0125 20.9869Z" fill="#183EB9"/>
<path d="M30.9584 23.8732H31.331V25.2171C31.331 25.3644 31.2962 25.494 31.2265 25.6058C31.1576 25.7176 31.0605 25.805 30.9353 25.868C30.81 25.9302 30.6637 25.9614 30.4963 25.9614C30.3283 25.9614 30.1816 25.9302 30.0564 25.868C29.9312 25.805 29.8341 25.7176 29.7651 25.6058C29.6962 25.494 29.6617 25.3644 29.6617 25.2171V23.8732H30.0343V25.186C30.0343 25.2717 30.0531 25.348 30.0905 25.415C30.1287 25.4819 30.1823 25.5345 30.2513 25.5727C30.3202 25.6102 30.4019 25.6289 30.4963 25.6289C30.5907 25.6289 30.6724 25.6102 30.7414 25.5727C30.811 25.5345 30.8646 25.4819 30.9021 25.415C30.9396 25.348 30.9584 25.2717 30.9584 25.186V23.8732ZM33.4264 23.8732V25.9302H33.095L32.1257 24.5291H32.1087V25.9302H31.736V23.8732H32.0695L33.0377 25.2754H33.0558V23.8732H33.4264ZM34.2051 23.8732V25.9302H33.8325V23.8732H34.2051ZM34.5182 24.1856V23.8732H36.1594V24.1856H35.5236V25.9302H35.154V24.1856H34.5182ZM36.4758 25.9302V23.8732H37.8137V24.1856H36.8484V24.744H37.7444V25.0564H36.8484V25.6179H37.8217V25.9302H36.4758ZM38.8909 25.9302H38.1939V23.8732H38.905C39.1092 23.8732 39.2846 23.9144 39.4313 23.9968C39.5786 24.0784 39.6918 24.196 39.7708 24.3493C39.8498 24.5026 39.8893 24.6861 39.8893 24.8997C39.8893 25.114 39.8494 25.2981 39.7698 25.4521C39.6908 25.6061 39.5766 25.7243 39.4273 25.8067C39.2786 25.8891 39.0998 25.9302 38.8909 25.9302ZM38.5665 25.6078H38.8728C39.0161 25.6078 39.1357 25.5817 39.2314 25.5295C39.3272 25.4766 39.3991 25.3979 39.4474 25.2934C39.4956 25.1883 39.5197 25.0571 39.5197 24.8997C39.5197 24.7424 39.4956 24.6118 39.4474 24.508C39.3991 24.4035 39.3278 24.3255 39.2334 24.274C39.1397 24.2217 39.0232 24.1956 38.8839 24.1956H38.5665V25.6078ZM41.3176 23.8732V25.9302H40.9449V23.8732H41.3176ZM43.4115 23.8732V25.9302H43.08L42.1108 24.5291H42.0937V25.9302H41.7211V23.8732H42.0545L43.0228 25.2754H43.0409V23.8732H43.4115ZM45.5079 23.8732V25.9302H45.1765L44.2072 24.5291H44.1902V25.9302H43.8175V23.8732H44.151L45.1192 25.2754H45.1373V23.8732H45.5079ZM47.752 24.9017C47.752 25.1234 47.7105 25.3132 47.6275 25.4712C47.5451 25.6286 47.4326 25.7491 47.29 25.8328C47.1481 25.9165 46.987 25.9584 46.8069 25.9584C46.6268 25.9584 46.4654 25.9165 46.3228 25.8328C46.1808 25.7484 46.0683 25.6276 45.9853 25.4702C45.9029 25.3122 45.8617 25.1227 45.8617 24.9017C45.8617 24.6801 45.9029 24.4906 45.9853 24.3332C46.0683 24.1752 46.1808 24.0543 46.3228 23.9706C46.4654 23.8869 46.6268 23.8451 46.8069 23.8451C46.987 23.8451 47.1481 23.8869 47.29 23.9706C47.4326 24.0543 47.5451 24.1752 47.6275 24.3332C47.7105 24.4906 47.752 24.6801 47.752 24.9017ZM47.3774 24.9017C47.3774 24.7457 47.353 24.6141 47.3041 24.507C47.2559 24.3992 47.1889 24.3178 47.1032 24.2629C47.0175 24.2073 46.9187 24.1796 46.8069 24.1796C46.6951 24.1796 46.5963 24.2073 46.5106 24.2629C46.4249 24.3178 46.3576 24.3992 46.3087 24.507C46.2605 24.6141 46.2364 24.7457 46.2364 24.9017C46.2364 25.0577 46.2605 25.1897 46.3087 25.2975C46.3576 25.4046 46.4249 25.486 46.5106 25.5415C46.5963 25.5964 46.6951 25.6239 46.8069 25.6239C46.9187 25.6239 47.0175 25.5964 47.1032 25.5415C47.1889 25.486 47.2559 25.4046 47.3041 25.2975C47.353 25.1897 47.3774 25.0577 47.3774 24.9017ZM48.2691 23.8732L48.8044 25.4923H48.8255L49.3598 23.8732H49.7696L49.0445 25.9302H48.5844L47.8603 23.8732H48.2691ZM50.0644 25.9302H49.6667L50.3909 23.8732H50.8509L51.5761 25.9302H51.1783L50.6289 24.2951H50.6128L50.0644 25.9302ZM50.0775 25.1237H51.1623V25.423H50.0775V25.1237ZM51.508 24.1856V23.8732H53.1492V24.1856H52.5134V25.9302H52.1438V24.1856H51.508ZM53.8382 23.8732V25.9302H53.4656V23.8732H53.8382ZM56.0798 24.9017C56.0798 25.1234 56.0383 25.3132 55.9553 25.4712C55.8729 25.6286 55.7604 25.7491 55.6178 25.8328C55.4758 25.9165 55.3148 25.9584 55.1347 25.9584C54.9546 25.9584 54.7932 25.9165 54.6506 25.8328C54.5086 25.7484 54.3961 25.6276 54.3131 25.4702C54.2307 25.3122 54.1895 25.1227 54.1895 24.9017C54.1895 24.6801 54.2307 24.4906 54.3131 24.3332C54.3961 24.1752 54.5086 24.0543 54.6506 23.9706C54.7932 23.8869 54.9546 23.8451 55.1347 23.8451C55.3148 23.8451 55.4758 23.8869 55.6178 23.9706C55.7604 24.0543 55.8729 24.1752 55.9553 24.3332C56.0383 24.4906 56.0798 24.6801 56.0798 24.9017ZM55.7052 24.9017C55.7052 24.7457 55.6807 24.6141 55.6319 24.507C55.5837 24.3992 55.5167 24.3178 55.431 24.2629C55.3453 24.2073 55.2465 24.1796 55.1347 24.1796C55.0229 24.1796 54.9241 24.2073 54.8384 24.2629C54.7527 24.3178 54.6854 24.3992 54.6365 24.507C54.5883 24.6141 54.5642 24.7457 54.5642 24.9017C54.5642 25.0577 54.5883 25.1897 54.6365 25.2975C54.6854 25.4046 54.7527 25.486 54.8384 25.5415C54.9241 25.5964 55.0229 25.6239 55.1347 25.6239C55.2465 25.6239 55.3453 25.5964 55.431 25.5415C55.5167 25.486 55.5837 25.4046 55.6319 25.2975C55.6807 25.1897 55.7052 25.0577 55.7052 24.9017ZM58.1225 23.8732V25.9302H57.7911L56.8218 24.5291H56.8048V25.9302H56.4321V23.8732H56.7656L57.7338 25.2754H57.7519V23.8732H58.1225ZM23.8768 28.9302H23.479L24.2032 26.8732H24.6632L25.3884 28.9302H24.9907L24.4413 27.2951H24.4252L23.8768 28.9302ZM23.8898 28.1237H24.9746V28.423H23.8898V28.1237ZM27.3498 26.8732V28.9302H27.0183L26.0491 27.5291H26.032V28.9302H25.6594V26.8732H25.9928L26.9611 28.2754H26.9791V26.8732H27.3498ZM28.4529 28.9302H27.7558V26.8732H28.4669C28.6712 26.8732 28.8466 26.9144 28.9932 26.9968C29.1405 27.0784 29.2537 27.196 29.3327 27.3493C29.4117 27.5026 29.4512 27.6861 29.4512 27.8997C29.4512 28.114 29.4114 28.2981 29.3317 28.4521C29.2527 28.6061 29.1385 28.7243 28.9892 28.8067C28.8406 28.8891 28.6618 28.9302 28.4529 28.9302ZM28.1284 28.6078H28.4348C28.5781 28.6078 28.6976 28.5817 28.7934 28.5295C28.8891 28.4766 28.9611 28.3979 29.0093 28.2934C29.0575 28.1883 29.0816 28.0571 29.0816 27.8997C29.0816 27.7424 29.0575 27.6118 29.0093 27.508C28.9611 27.4035 28.8898 27.3255 28.7954 27.274C28.7016 27.2217 28.5851 27.1956 28.4458 27.1956H28.1284V28.6078ZM30.8795 26.8732V28.9302H30.5069V26.8732H30.8795ZM31.283 26.8732H31.739L32.3497 28.3638H32.3738L32.9845 26.8732H33.4405V28.9302H33.0829V27.517H33.0638L32.4954 28.9242H32.2282L31.6597 27.514H31.6406V28.9302H31.283V26.8732ZM33.8463 28.9302V26.8732H34.6177C34.7757 26.8732 34.9083 26.9027 35.0154 26.9616C35.1232 27.0205 35.2046 27.1015 35.2595 27.2047C35.3151 27.3071 35.3428 27.4236 35.3428 27.5542C35.3428 27.6861 35.3151 27.8033 35.2595 27.9057C35.2039 28.0082 35.1219 28.0889 35.0134 28.1478C34.9049 28.2061 34.7713 28.2352 34.6126 28.2352H34.1014V27.9288H34.5624C34.6548 27.9288 34.7305 27.9128 34.7894 27.8806C34.8483 27.8485 34.8919 27.8043 34.92 27.748C34.9488 27.6918 34.9632 27.6272 34.9632 27.5542C34.9632 27.4812 34.9488 27.4169 34.92 27.3614C34.8919 27.3058 34.848 27.2626 34.7884 27.2318C34.7295 27.2003 34.6535 27.1846 34.5604 27.1846H34.2189V28.9302H33.8463ZM35.7014 28.9302H35.3037L36.0278 26.8732H36.4879L37.2131 28.9302H36.8153L36.2659 27.2951H36.2498L35.7014 28.9302ZM35.7145 28.1237H36.7992V28.423H35.7145V28.1237ZM39.148 27.5673H38.7724C38.7617 27.5057 38.7419 27.4511 38.7131 27.4035C38.6843 27.3553 38.6485 27.3145 38.6057 27.281C38.5628 27.2475 38.5139 27.2224 38.459 27.2057C38.4048 27.1883 38.3462 27.1796 38.2832 27.1796C38.1714 27.1796 38.0723 27.2077 37.9859 27.2639C37.8996 27.3195 37.8319 27.4012 37.7831 27.509C37.7342 27.6161 37.7097 27.747 37.7097 27.9017C37.7097 28.0591 37.7342 28.1917 37.7831 28.2995C37.8326 28.4066 37.9002 28.4876 37.9859 28.5425C38.0723 28.5968 38.1711 28.6239 38.2822 28.6239C38.3438 28.6239 38.4014 28.6159 38.455 28.5998C38.5092 28.583 38.5578 28.5586 38.6006 28.5265C38.6442 28.4943 38.6807 28.4548 38.7101 28.4079C38.7403 28.3611 38.761 28.3075 38.7724 28.2472L39.148 28.2492C39.134 28.347 39.1035 28.4387 39.0566 28.5245C39.0104 28.6102 38.9498 28.6858 38.8748 28.7515C38.7998 28.8164 38.7121 28.8673 38.6117 28.9041C38.5112 28.9403 38.3998 28.9584 38.2772 28.9584C38.0964 28.9584 37.9351 28.9165 37.7931 28.8328C37.6511 28.7491 37.5393 28.6282 37.4576 28.4702C37.3759 28.3122 37.3351 28.1227 37.3351 27.9017C37.3351 27.6801 37.3763 27.4906 37.4586 27.3332C37.541 27.1752 37.6531 27.0543 37.7951 26.9706C37.9371 26.8869 38.0978 26.8451 38.2772 26.8451C38.3917 26.8451 38.4982 26.8612 38.5966 26.8933C38.6951 26.9254 38.7828 26.9726 38.8598 27.0349C38.9368 27.0965 39.0001 27.1722 39.0496 27.2619C39.0998 27.351 39.1326 27.4528 39.148 27.5673ZM39.3989 27.1856V26.8732H41.0401V27.1856H40.4043V28.9302H40.0347V27.1856H39.3989ZM43.176 27.4387C43.1666 27.351 43.1271 27.2827 43.0574 27.2338C42.9885 27.1849 42.8987 27.1605 42.7883 27.1605C42.7106 27.1605 42.644 27.1722 42.5884 27.1956C42.5328 27.2191 42.4903 27.2509 42.4608 27.291C42.4314 27.3312 42.4163 27.3771 42.4156 27.4286C42.4156 27.4715 42.4253 27.5087 42.4448 27.5401C42.4648 27.5716 42.492 27.5984 42.5261 27.6205C42.5603 27.6419 42.5981 27.66 42.6396 27.6747C42.6811 27.6895 42.723 27.7018 42.7652 27.7119L42.958 27.7601C43.0357 27.7782 43.1103 27.8026 43.182 27.8334C43.2543 27.8642 43.3189 27.9031 43.3758 27.9499C43.4334 27.9968 43.479 28.0534 43.5124 28.1197C43.5459 28.186 43.5627 28.2636 43.5627 28.3527C43.5627 28.4732 43.5319 28.5794 43.4703 28.6711C43.4087 28.7622 43.3196 28.8335 43.2031 28.885C43.0872 28.9359 42.947 28.9614 42.7822 28.9614C42.6222 28.9614 42.4833 28.9366 42.3654 28.887C42.2482 28.8375 42.1565 28.7652 42.0902 28.6701C42.0246 28.575 41.9891 28.4592 41.9837 28.3226H42.3503C42.3557 28.3942 42.3778 28.4538 42.4166 28.5014C42.4555 28.5489 42.506 28.5844 42.5683 28.6078C42.6312 28.6313 42.7015 28.643 42.7792 28.643C42.8602 28.643 42.9312 28.6309 42.9922 28.6068C43.0538 28.582 43.102 28.5479 43.1368 28.5044C43.1716 28.4602 43.1894 28.4086 43.19 28.3497C43.1894 28.2961 43.1736 28.2519 43.1428 28.2171C43.112 28.1816 43.0688 28.1522 43.0132 28.1287C42.9583 28.1046 42.8941 28.0832 42.8204 28.0644L42.5864 28.0042C42.417 27.9606 42.283 27.8947 42.1846 27.8063C42.0869 27.7172 42.038 27.5991 42.038 27.4517C42.038 27.3306 42.0708 27.2244 42.1364 27.1334C42.2027 27.0423 42.2928 26.9716 42.4066 26.9214C42.5204 26.8705 42.6493 26.8451 42.7933 26.8451C42.9393 26.8451 43.0672 26.8705 43.177 26.9214C43.2875 26.9716 43.3742 27.0416 43.4371 27.1313C43.5001 27.2204 43.5325 27.3229 43.5345 27.4387H43.176ZM45.7329 27.9017C45.7329 28.1234 45.6914 28.3132 45.6084 28.4712C45.526 28.6286 45.4135 28.7491 45.2709 28.8328C45.1289 28.9165 44.9679 28.9584 44.7878 28.9584C44.6077 28.9584 44.4463 28.9165 44.3037 28.8328C44.1617 28.7484 44.0492 28.6276 43.9662 28.4702C43.8838 28.3122 43.8426 28.1227 43.8426 27.9017C43.8426 27.6801 43.8838 27.4906 43.9662 27.3332C44.0492 27.1752 44.1617 27.0543 44.3037 26.9706C44.4463 26.8869 44.6077 26.8451 44.7878 26.8451C44.9679 26.8451 45.1289 26.8869 45.2709 26.9706C45.4135 27.0543 45.526 27.1752 45.6084 27.3332C45.6914 27.4906 45.7329 27.6801 45.7329 27.9017ZM45.3583 27.9017C45.3583 27.7457 45.3338 27.6141 45.285 27.507C45.2368 27.3992 45.1698 27.3178 45.0841 27.2629C44.9984 27.2073 44.8996 27.1796 44.7878 27.1796C44.676 27.1796 44.5772 27.2073 44.4915 27.2629C44.4058 27.3178 44.3385 27.3992 44.2896 27.507C44.2414 27.6141 44.2173 27.7457 44.2173 27.9017C44.2173 28.0577 44.2414 28.1897 44.2896 28.2975C44.3385 28.4046 44.4058 28.486 44.4915 28.5415C44.5772 28.5964 44.676 28.6239 44.7878 28.6239C44.8996 28.6239 44.9984 28.5964 45.0841 28.5415C45.1698 28.486 45.2368 28.4046 45.285 28.2975C45.3338 28.1897 45.3583 28.0577 45.3583 27.9017ZM46.0852 28.9302V26.8732H46.4579V28.6179H47.3638V28.9302H46.0852ZM48.9839 26.8732H49.3566V28.2171C49.3566 28.3644 49.3218 28.494 49.2521 28.6058C49.1832 28.7176 49.0861 28.805 48.9608 28.868C48.8356 28.9302 48.6893 28.9614 48.5219 28.9614C48.3538 28.9614 48.2072 28.9302 48.082 28.868C47.9568 28.805 47.8597 28.7176 47.7907 28.6058C47.7217 28.494 47.6873 28.3644 47.6873 28.2171V26.8732H48.0599V28.186C48.0599 28.2717 48.0786 28.348 48.1161 28.415C48.1543 28.4819 48.2079 28.5345 48.2768 28.5727C48.3458 28.6102 48.4275 28.6289 48.5219 28.6289C48.6163 28.6289 48.698 28.6102 48.767 28.5727C48.8366 28.5345 48.8902 28.4819 48.9277 28.415C48.9652 28.348 48.9839 28.2717 48.9839 28.186V26.8732ZM49.6712 27.1856V26.8732H51.3124V27.1856H50.6766V28.9302H50.307V27.1856H49.6712ZM52.0014 26.8732V28.9302H51.6288V26.8732H52.0014ZM54.243 27.9017C54.243 28.1234 54.2015 28.3132 54.1185 28.4712C54.0361 28.6286 53.9236 28.7491 53.781 28.8328C53.639 28.9165 53.478 28.9584 53.2979 28.9584C53.1178 28.9584 52.9564 28.9165 52.8138 28.8328C52.6718 28.7484 52.5593 28.6276 52.4763 28.4702C52.3939 28.3122 52.3527 28.1227 52.3527 27.9017C52.3527 27.6801 52.3939 27.4906 52.4763 27.3332C52.5593 27.1752 52.6718 27.0543 52.8138 26.9706C52.9564 26.8869 53.1178 26.8451 53.2979 26.8451C53.478 26.8451 53.639 26.8869 53.781 26.9706C53.9236 27.0543 54.0361 27.1752 54.1185 27.3332C54.2015 27.4906 54.243 27.6801 54.243 27.9017ZM53.8684 27.9017C53.8684 27.7457 53.8439 27.6141 53.7951 27.507C53.7468 27.3992 53.6799 27.3178 53.5942 27.2629C53.5085 27.2073 53.4097 27.1796 53.2979 27.1796C53.1861 27.1796 53.0873 27.2073 53.0016 27.2629C52.9159 27.3178 52.8486 27.3992 52.7997 27.507C52.7515 27.6141 52.7274 27.7457 52.7274 27.9017C52.7274 28.0577 52.7515 28.1897 52.7997 28.2975C52.8486 28.4046 52.9159 28.486 53.0016 28.5415C53.0873 28.5964 53.1861 28.6239 53.2979 28.6239C53.4097 28.6239 53.5085 28.5964 53.5942 28.5415C53.6799 28.486 53.7468 28.4046 53.7951 28.2975C53.8439 28.1897 53.8684 28.0577 53.8684 27.9017ZM56.2857 26.8732V28.9302H55.9543L54.985 27.5291H54.968V28.9302H54.5953V26.8732H54.9288L55.897 28.2754H55.9151V26.8732H56.2857ZM57.8097 27.4387C57.8003 27.351 57.7608 27.2827 57.6912 27.2338C57.6222 27.1849 57.5325 27.1605 57.422 27.1605C57.3443 27.1605 57.2777 27.1722 57.2221 27.1956C57.1665 27.2191 57.124 27.2509 57.0945 27.291C57.0651 27.3312 57.05 27.3771 57.0493 27.4286C57.0493 27.4715 57.059 27.5087 57.0785 27.5401C57.0986 27.5716 57.1257 27.5984 57.1598 27.6205C57.194 27.6419 57.2318 27.66 57.2733 27.6747C57.3148 27.6895 57.3567 27.7018 57.3989 27.7119L57.5917 27.7601C57.6694 27.7782 57.7441 27.8026 57.8157 27.8334C57.888 27.8642 57.9526 27.9031 58.0095 27.9499C58.0671 27.9968 58.1127 28.0534 58.1461 28.1197C58.1796 28.186 58.1964 28.2636 58.1964 28.3527C58.1964 28.4732 58.1656 28.5794 58.104 28.6711C58.0424 28.7622 57.9533 28.8335 57.8368 28.885C57.7209 28.9359 57.5807 28.9614 57.4159 28.9614C57.2559 28.9614 57.117 28.9366 56.9991 28.887C56.8819 28.8375 56.7902 28.7652 56.7239 28.6701C56.6583 28.575 56.6228 28.4592 56.6174 28.3226H56.984C56.9894 28.3942 57.0115 28.4538 57.0503 28.5014C57.0892 28.5489 57.1397 28.5844 57.202 28.6078C57.2649 28.6313 57.3353 28.643 57.4129 28.643C57.494 28.643 57.5649 28.6309 57.6259 28.6068C57.6875 28.582 57.7357 28.5479 57.7705 28.5044C57.8053 28.4602 57.8231 28.4086 57.8237 28.3497C57.8231 28.2961 57.8073 28.2519 57.7765 28.2171C57.7457 28.1816 57.7025 28.1522 57.647 28.1287C57.592 28.1046 57.5278 28.0832 57.4541 28.0644L57.2201 28.0042C57.0507 27.9606 56.9168 27.8947 56.8183 27.8063C56.7206 27.7172 56.6717 27.5991 56.6717 27.4517C56.6717 27.3306 56.7045 27.2244 56.7701 27.1334C56.8364 27.0423 56.9265 26.9716 57.0403 26.9214C57.1541 26.8705 57.283 26.8451 57.427 26.8451C57.573 26.8451 57.7009 26.8705 57.8107 26.9214C57.9212 26.9716 58.0079 27.0416 58.0708 27.1313C58.1338 27.2204 58.1662 27.3229 58.1682 27.4387H57.8097Z" fill="#222B75"/>
<path d="M6.28125 21.6674L11.7753 27.1615L8.28823 30.6485L3.74195 26.1022C3.21852 25.5788 3.21852 24.7301 3.74195 24.2067L6.28125 21.6674Z" fill="#222B75"/>
<path d="M8.27612 30.6364L21.1134 17.7991L24.877 21.5626L12.9874 33.4522C12.464 33.9756 11.6153 33.9756 11.0919 33.4522L8.27612 30.6364Z" fill="#183EB9"/>
<rect x="4.63867" y="10.403" width="9.17456" height="5.07626" transform="rotate(45 4.63867 10.403)" fill="#183EB9"/>
<path d="M1 13.9435L11.5895 3.35401C12.3372 2.60625 13.5496 2.60625 14.2974 3.35402L16.7069 5.76359L4.76352 17.707L1 13.9435Z" fill="#183EB9"/>
<path d="M19.3333 8.63055L23.7733 13.0706C24.2967 13.594 24.2967 14.4427 23.7733 14.9661L21.0867 17.6527L15.6989 12.2649L19.3333 8.63055Z" fill="#222B75"/>
<rect x="7.51001" y="20.4536" width="11.5838" height="3.75365" transform="rotate(-45 7.51001 20.4536)" fill="#222B75"/>
</svg>
