<svg width="43" height="24" viewBox="0 0 43 24" fill="none" xmlns="http://www.w3.org/2000/svg">
<path d="M24.0547 13.1348C23.293 13.1348 22.6504 13.002 22.127 12.7363C21.6035 12.4707 21.2109 12.0938 20.9492 11.6055C20.6875 11.1133 20.5566 10.5352 20.5566 9.87109V4.55078H22.6426V9.73633C22.6426 10.2949 22.7578 10.7109 22.9883 10.9844C23.2188 11.2539 23.5742 11.3887 24.0547 11.3887C24.5273 11.3887 24.8789 11.2539 25.1094 10.9844C25.3398 10.7109 25.4551 10.2949 25.4551 9.73633V4.55078H27.541V9.87109C27.541 10.5391 27.4102 11.1172 27.1484 11.6055C26.8906 12.0938 26.502 12.4707 25.9824 12.7363C25.4629 13.002 24.8203 13.1348 24.0547 13.1348ZM28.7832 13V4.55078H30.8691V13H28.7832ZM32.2402 13V4.55078H34.3262V13H32.2402ZM38.709 13.1406C37.9941 13.1406 37.3848 13.0352 36.8809 12.8242C36.377 12.6094 35.9844 12.293 35.7031 11.875C35.4258 11.4531 35.2695 10.9375 35.2344 10.3281H37.3848C37.3926 10.5703 37.4473 10.7832 37.5488 10.9668C37.6543 11.1465 37.8047 11.2891 38 11.3945C38.1992 11.4961 38.4414 11.5469 38.7266 11.5469C38.9688 11.5469 39.1758 11.5156 39.3477 11.4531C39.5195 11.3867 39.6523 11.2891 39.7461 11.1602C39.8398 11.0273 39.8867 10.8691 39.8867 10.6855C39.8867 10.4941 39.8457 10.3359 39.7637 10.2109C39.6855 10.0859 39.5547 9.98438 39.3711 9.90625C39.1875 9.82812 38.9316 9.75977 38.6035 9.70117C37.916 9.58398 37.3496 9.43555 36.9043 9.25586C36.4629 9.07227 36.1191 8.81641 35.873 8.48828C35.6309 8.15625 35.5098 7.72656 35.5098 7.19922C35.5098 6.61328 35.6328 6.11328 35.8789 5.69922C36.1289 5.28125 36.4922 4.96289 36.9688 4.74414C37.4492 4.52148 38.0273 4.41016 38.7031 4.41016C39.3555 4.41016 39.916 4.51367 40.3848 4.7207C40.8574 4.92383 41.2266 5.23047 41.4922 5.64062C41.7578 6.04688 41.9141 6.54883 41.9609 7.14648H39.8223C39.8105 6.9082 39.7578 6.70508 39.6641 6.53711C39.5703 6.36523 39.4375 6.23438 39.2656 6.14453C39.0938 6.05469 38.8887 6.00977 38.6504 6.00977C38.4395 6.00977 38.2539 6.04492 38.0938 6.11523C37.9336 6.18555 37.8086 6.28906 37.7188 6.42578C37.6289 6.5625 37.584 6.72461 37.584 6.91211C37.584 7.08008 37.6211 7.21875 37.6953 7.32812C37.7734 7.43359 37.9023 7.52344 38.082 7.59766C38.2656 7.67188 38.5215 7.74023 38.8496 7.80273C39.5723 7.93945 40.1602 8.09961 40.6133 8.2832C41.0664 8.4668 41.418 8.73047 41.668 9.07422C41.918 9.41406 42.043 9.86719 42.043 10.4336C42.043 11.0312 41.9121 11.5332 41.6504 11.9395C41.3887 12.3418 41.0098 12.6426 40.5137 12.8418C40.0176 13.041 39.416 13.1406 38.709 13.1406Z" fill="white"/>
<path d="M22.3867 15.5258H22.6538V16.4889C22.6538 16.5945 22.6288 16.6874 22.5789 16.7675C22.5295 16.8476 22.4599 16.9103 22.3702 16.9554C22.2805 17 22.1756 17.0223 22.0556 17.0223C21.9352 17.0223 21.8301 17 21.7403 16.9554C21.6506 16.9103 21.581 16.8476 21.5316 16.7675C21.4822 16.6874 21.4575 16.5945 21.4575 16.4889V15.5258H21.7245V16.4666C21.7245 16.528 21.7379 16.5827 21.7648 16.6307C21.7922 16.6787 21.8306 16.7164 21.88 16.7437C21.9294 16.7706 21.988 16.7841 22.0556 16.7841C22.1233 16.7841 22.1818 16.7706 22.2313 16.7437C22.2812 16.7164 22.3196 16.6787 22.3464 16.6307C22.3733 16.5827 22.3867 16.528 22.3867 16.4666V15.5258ZM24.1555 15.5258V17H23.918L23.2234 15.9958H23.2111V17H22.9441V15.5258H23.1831L23.877 16.5307H23.8899V15.5258H24.1555ZM24.7136 15.5258V17H24.4465V15.5258H24.7136ZM24.938 15.7497V15.5258H26.1142V15.7497H25.6585V17H25.3936V15.7497H24.938ZM26.3409 17V15.5258H27.2997V15.7497H26.608V16.1499H27.2501V16.3738H26.608V16.7761H27.3055V17H26.3409ZM28.0717 17H27.5722V15.5258H28.0818C28.2282 15.5258 28.3539 15.5553 28.459 15.6143C28.5646 15.6729 28.6457 15.7571 28.7023 15.867C28.7589 15.9769 28.7873 16.1084 28.7873 16.2615C28.7873 16.415 28.7587 16.547 28.7016 16.6574C28.645 16.7677 28.5631 16.8524 28.4561 16.9115C28.3496 16.9705 28.2215 17 28.0717 17ZM27.8392 16.7689H28.0588C28.1615 16.7689 28.2471 16.7502 28.3158 16.7128C28.3844 16.6749 28.436 16.6185 28.4705 16.5436C28.5051 16.4683 28.5224 16.3742 28.5224 16.2615C28.5224 16.1487 28.5051 16.0551 28.4705 15.9807C28.436 15.9059 28.3849 15.85 28.3172 15.813C28.25 15.7756 28.1665 15.7569 28.0667 15.7569H27.8392V16.7689ZM29.8108 15.5258V17H29.5438V15.5258H29.8108ZM31.3115 15.5258V17H31.074L30.3793 15.9958H30.3671V17H30.1V15.5258H30.339L31.0329 16.5307H31.0459V15.5258H31.3115ZM32.814 15.5258V17H32.5764L31.8818 15.9958H31.8695V17H31.6025V15.5258H31.8415L32.5354 16.5307H32.5483V15.5258H32.814ZM34.4222 16.2629C34.4222 16.4217 34.3925 16.5578 34.333 16.671C34.2739 16.7838 34.1933 16.8702 34.0911 16.9302C33.9894 16.9902 33.874 17.0202 33.7449 17.0202C33.6158 17.0202 33.5001 16.9902 33.3979 16.9302C33.2962 16.8697 33.2156 16.7831 33.156 16.6703C33.097 16.5571 33.0675 16.4213 33.0675 16.2629C33.0675 16.1041 33.097 15.9683 33.156 15.8555C33.2156 15.7422 33.2962 15.6556 33.3979 15.5956C33.5001 15.5356 33.6158 15.5056 33.7449 15.5056C33.874 15.5056 33.9894 15.5356 34.0911 15.5956C34.1933 15.6556 34.2739 15.7422 34.333 15.8555C34.3925 15.9683 34.4222 16.1041 34.4222 16.2629ZM34.1537 16.2629C34.1537 16.1511 34.1362 16.0568 34.1012 15.98C34.0666 15.9027 34.0186 15.8444 33.9572 15.8051C33.8958 15.7653 33.825 15.7453 33.7449 15.7453C33.6647 15.7453 33.5939 15.7653 33.5325 15.8051C33.4711 15.8444 33.4229 15.9027 33.3878 15.98C33.3533 16.0568 33.336 16.1511 33.336 16.2629C33.336 16.3747 33.3533 16.4692 33.3878 16.5465C33.4229 16.6233 33.4711 16.6816 33.5325 16.7214C33.5939 16.7608 33.6647 16.7805 33.7449 16.7805C33.825 16.7805 33.8958 16.7608 33.9572 16.7214C34.0186 16.6816 34.0666 16.6233 34.1012 16.5465C34.1362 16.4692 34.1537 16.3747 34.1537 16.2629ZM34.7928 15.5258L35.1764 16.6862H35.1915L35.5745 15.5258H35.8682L35.3485 17H35.0188L34.4998 15.5258H34.7928ZM36.0794 17H35.7944L36.3134 15.5258H36.6431L37.1628 17H36.8777L36.484 15.8281H36.4725L36.0794 17ZM36.0888 16.422H36.8662V16.6365H36.0888V16.422ZM37.114 15.7497V15.5258H38.2902V15.7497H37.8346V17H37.5697V15.7497H37.114ZM38.784 15.5258V17H38.5169V15.5258H38.784ZM40.3905 16.2629C40.3905 16.4217 40.3607 16.5578 40.3012 16.671C40.2422 16.7838 40.1616 16.8702 40.0594 16.9302C39.9576 16.9902 39.8422 17.0202 39.7131 17.0202C39.584 17.0202 39.4684 16.9902 39.3662 16.9302C39.2644 16.8697 39.1838 16.7831 39.1243 16.6703C39.0653 16.5571 39.0358 16.4213 39.0358 16.2629C39.0358 16.1041 39.0653 15.9683 39.1243 15.8555C39.1838 15.7422 39.2644 15.6556 39.3662 15.5956C39.4684 15.5356 39.584 15.5056 39.7131 15.5056C39.8422 15.5056 39.9576 15.5356 40.0594 15.5956C40.1616 15.6556 40.2422 15.7422 40.3012 15.8555C40.3607 15.9683 40.3905 16.1041 40.3905 16.2629ZM40.122 16.2629C40.122 16.1511 40.1045 16.0568 40.0694 15.98C40.0349 15.9027 39.9869 15.8444 39.9255 15.8051C39.864 15.7653 39.7933 15.7453 39.7131 15.7453C39.633 15.7453 39.5622 15.7653 39.5008 15.8051C39.4393 15.8444 39.3911 15.9027 39.3561 15.98C39.3215 16.0568 39.3043 16.1511 39.3043 16.2629C39.3043 16.3747 39.3215 16.4692 39.3561 16.5465C39.3911 16.6233 39.4393 16.6816 39.5008 16.7214C39.5622 16.7608 39.633 16.7805 39.7131 16.7805C39.7933 16.7805 39.864 16.7608 39.9255 16.7214C39.9869 16.6816 40.0349 16.6233 40.0694 16.5465C40.1045 16.4692 40.122 16.3747 40.122 16.2629ZM41.8544 15.5258V17H41.6169L40.9222 15.9958H40.91V17H40.6429V15.5258H40.8819L41.5758 16.5307H41.5888V15.5258H41.8544ZM17.3116 19H17.0266L17.5456 17.5258H17.8752L18.395 19H18.1099L17.7162 17.8281H17.7046L17.3116 19ZM17.321 18.422H18.0984V18.6365H17.321V18.422ZM19.8006 17.5258V19H19.5631L18.8684 17.9958H18.8562V19H18.5891V17.5258H18.8281L19.522 18.5307H19.535V17.5258H19.8006ZM20.5911 19H20.0916V17.5258H20.6012C20.7476 17.5258 20.8733 17.5553 20.9784 17.6143C21.084 17.6729 21.1651 17.7571 21.2217 17.867C21.2783 17.9769 21.3067 18.1084 21.3067 18.2615C21.3067 18.415 21.2781 18.547 21.221 18.6574C21.1644 18.7677 21.0825 18.8524 20.9755 18.9115C20.869 18.9705 20.7409 19 20.5911 19ZM20.3586 18.7689H20.5782C20.6809 18.7689 20.7665 18.7502 20.8352 18.7128C20.9038 18.6749 20.9554 18.6185 20.9899 18.5436C21.0245 18.4683 21.0418 18.3742 21.0418 18.2615C21.0418 18.1487 21.0245 18.0551 20.9899 17.9807C20.9554 17.9059 20.9043 17.85 20.8366 17.813C20.7694 17.7756 20.6859 17.7569 20.5861 17.7569H20.3586V18.7689ZM22.3302 17.5258V19H22.0632V17.5258H22.3302ZM22.6194 17.5258H22.9462L23.3839 18.594H23.4012L23.8388 17.5258H24.1656V19H23.9094V17.9872H23.8957L23.4883 18.9957H23.2968L22.8894 17.985H22.8757V19H22.6194V17.5258ZM24.4564 19V17.5258H25.0093C25.1225 17.5258 25.2175 17.5469 25.2943 17.5891C25.3716 17.6314 25.4299 17.6894 25.4692 17.7633C25.509 17.8368 25.529 17.9203 25.529 18.0138C25.529 18.1084 25.509 18.1924 25.4692 18.2658C25.4294 18.3392 25.3706 18.397 25.2929 18.4393C25.2151 18.481 25.1194 18.5019 25.0057 18.5019H24.6393V18.2823H24.9697C25.0359 18.2823 25.0901 18.2708 25.1323 18.2478C25.1746 18.2247 25.2058 18.1931 25.2259 18.1528C25.2466 18.1125 25.2569 18.0661 25.2569 18.0138C25.2569 17.9615 25.2466 17.9155 25.2259 17.8756C25.2058 17.8358 25.1743 17.8049 25.1316 17.7828C25.0894 17.7602 25.0349 17.7489 24.9682 17.7489H24.7235V19H24.4564ZM25.7859 19H25.5009L26.0199 17.5258H26.3496L26.8693 19H26.5842L26.1905 17.8281H26.179L25.7859 19ZM25.7953 18.422H26.5727V18.6365H25.7953V18.422ZM28.256 18.0232H27.9868C27.9791 17.979 27.965 17.9399 27.9443 17.9059C27.9237 17.8713 27.898 17.842 27.8673 17.818C27.8366 17.7941 27.8016 17.7761 27.7622 17.7641C27.7234 17.7516 27.6814 17.7453 27.6363 17.7453C27.5561 17.7453 27.4851 17.7655 27.4232 17.8058C27.3613 17.8456 27.3128 17.9042 27.2778 17.9814C27.2427 18.0582 27.2252 18.152 27.2252 18.2629C27.2252 18.3757 27.2427 18.4707 27.2778 18.5479C27.3133 18.6247 27.3618 18.6828 27.4232 18.7221C27.4851 18.761 27.5559 18.7805 27.6355 18.7805C27.6797 18.7805 27.721 18.7747 27.7593 18.7632C27.7982 18.7512 27.833 18.7337 27.8637 18.7106C27.8949 18.6876 27.9211 18.6593 27.9422 18.6257C27.9638 18.5921 27.9786 18.5537 27.9868 18.5105L28.256 18.512C28.2459 18.582 28.2241 18.6478 28.1905 18.7092C28.1574 18.7706 28.114 18.8248 28.0602 18.8719C28.0065 18.9184 27.9436 18.9549 27.8716 18.9813C27.7997 19.0072 27.7198 19.0202 27.6319 19.0202C27.5024 19.0202 27.3867 18.9902 27.285 18.9302C27.1832 18.8702 27.1031 18.7836 27.0446 18.6703C26.986 18.5571 26.9567 18.4213 26.9567 18.2629C26.9567 18.1041 26.9863 17.9683 27.0453 17.8555C27.1043 17.7422 27.1847 17.6556 27.2864 17.5956C27.3882 17.5356 27.5033 17.5056 27.6319 17.5056C27.714 17.5056 27.7903 17.5172 27.8608 17.5402C27.9314 17.5632 27.9942 17.5971 28.0494 17.6417C28.1046 17.6858 28.15 17.7401 28.1855 17.8044C28.2215 17.8682 28.245 17.9411 28.256 18.0232ZM28.4358 17.7497V17.5258H29.612V17.7497H29.1563V19H28.8914V17.7497H28.4358ZM31.1427 17.9311C31.136 17.8682 31.1077 17.8192 31.0578 17.7842C31.0083 17.7492 30.944 17.7317 30.8648 17.7317C30.8092 17.7317 30.7614 17.7401 30.7216 17.7569C30.6818 17.7737 30.6513 17.7965 30.6302 17.8252C30.6091 17.854 30.5983 17.8869 30.5978 17.9239C30.5978 17.9546 30.6048 17.9812 30.6187 18.0038C30.6331 18.0263 30.6525 18.0455 30.677 18.0613C30.7014 18.0767 30.7286 18.0897 30.7583 18.1002C30.7881 18.1108 30.8181 18.1197 30.8483 18.1269L30.9865 18.1614C31.0422 18.1744 31.0957 18.1919 31.147 18.214C31.1988 18.236 31.2452 18.2639 31.2859 18.2975C31.3272 18.331 31.3598 18.3716 31.3838 18.4191C31.4078 18.4666 31.4198 18.5223 31.4198 18.5861C31.4198 18.6725 31.3978 18.7485 31.3536 18.8143C31.3095 18.8795 31.2456 18.9307 31.1621 18.9676C31.0791 19.0041 30.9786 19.0223 30.8605 19.0223C30.7458 19.0223 30.6463 19.0046 30.5618 18.969C30.4778 18.9335 30.4121 18.8817 30.3646 18.8136C30.3175 18.7454 30.2921 18.6624 30.2883 18.5645H30.551C30.5548 18.6159 30.5707 18.6586 30.5985 18.6926C30.6263 18.7267 30.6626 18.7521 30.7072 18.7689C30.7523 18.7857 30.8027 18.7941 30.8584 18.7941C30.9164 18.7941 30.9673 18.7855 31.011 18.7682C31.0551 18.7505 31.0897 18.726 31.1146 18.6948C31.1396 18.6631 31.1523 18.6262 31.1528 18.5839C31.1523 18.5456 31.141 18.5139 31.1189 18.4889C31.0969 18.4635 31.0659 18.4424 31.0261 18.4256C30.9867 18.4083 30.9407 18.3929 30.8879 18.3795L30.7202 18.3363C30.5988 18.3051 30.5028 18.2579 30.4322 18.1945C30.3622 18.1307 30.3271 18.046 30.3271 17.9404C30.3271 17.8536 30.3507 17.7775 30.3977 17.7122C30.4452 17.647 30.5097 17.5963 30.5913 17.5603C30.6729 17.5239 30.7653 17.5056 30.8684 17.5056C30.9731 17.5056 31.0647 17.5239 31.1434 17.5603C31.2226 17.5963 31.2847 17.6465 31.3299 17.7108C31.375 17.7746 31.3982 17.848 31.3997 17.9311H31.1427ZM32.9752 18.2629C32.9752 18.4217 32.9454 18.5578 32.8859 18.671C32.8269 18.7838 32.7463 18.8702 32.6441 18.9302C32.5423 18.9902 32.4269 19.0202 32.2978 19.0202C32.1687 19.0202 32.0531 18.9902 31.9509 18.9302C31.8491 18.8697 31.7685 18.7831 31.709 18.6703C31.65 18.5571 31.6205 18.4213 31.6205 18.2629C31.6205 18.1041 31.65 17.9683 31.709 17.8555C31.7685 17.7422 31.8491 17.6556 31.9509 17.5956C32.0531 17.5356 32.1687 17.5056 32.2978 17.5056C32.4269 17.5056 32.5423 17.5356 32.6441 17.5956C32.7463 17.6556 32.8269 17.7422 32.8859 17.8555C32.9454 17.9683 32.9752 18.1041 32.9752 18.2629ZM32.7067 18.2629C32.7067 18.1511 32.6892 18.0568 32.6542 17.98C32.6196 17.9027 32.5716 17.8444 32.5102 17.8051C32.4488 17.7653 32.378 17.7453 32.2978 17.7453C32.2177 17.7453 32.1469 17.7653 32.0855 17.8051C32.0241 17.8444 31.9758 17.9027 31.9408 17.98C31.9063 18.0568 31.889 18.1511 31.889 18.2629C31.889 18.3747 31.9063 18.4692 31.9408 18.5465C31.9758 18.6233 32.0241 18.6816 32.0855 18.7214C32.1469 18.7608 32.2177 18.7805 32.2978 18.7805C32.378 18.7805 32.4488 18.7608 32.5102 18.7214C32.5716 18.6816 32.6196 18.6233 32.6542 18.5465C32.6892 18.4692 32.7067 18.3747 32.7067 18.2629ZM33.2277 19V17.5258H33.4947V18.7761H34.144V19H33.2277ZM35.3051 17.5258H35.5721V18.4889C35.5721 18.5945 35.5472 18.6874 35.4973 18.7675C35.4479 18.8476 35.3783 18.9103 35.2885 18.9554C35.1988 19 35.0939 19.0223 34.974 19.0223C34.8535 19.0223 34.7484 19 34.6587 18.9554C34.5689 18.9103 34.4994 18.8476 34.4499 18.7675C34.4005 18.6874 34.3758 18.5945 34.3758 18.4889V17.5258H34.6428V18.4666C34.6428 18.528 34.6563 18.5827 34.6832 18.6307C34.7105 18.6787 34.7489 18.7164 34.7983 18.7437C34.8478 18.7706 34.9063 18.7841 34.974 18.7841C35.0416 18.7841 35.1002 18.7706 35.1496 18.7437C35.1995 18.7164 35.2379 18.6787 35.2648 18.6307C35.2917 18.5827 35.3051 18.528 35.3051 18.4666V17.5258ZM35.7976 17.7497V17.5258H36.9738V17.7497H36.5182V19H36.2533V17.7497H35.7976ZM37.4676 17.5258V19H37.2006V17.5258H37.4676ZM39.0741 18.2629C39.0741 18.4217 39.0443 18.5578 38.9848 18.671C38.9258 18.7838 38.8452 18.8702 38.743 18.9302C38.6412 18.9902 38.5258 19.0202 38.3967 19.0202C38.2676 19.0202 38.152 18.9902 38.0498 18.9302C37.948 18.8697 37.8674 18.7831 37.8079 18.6703C37.7489 18.5571 37.7194 18.4213 37.7194 18.2629C37.7194 18.1041 37.7489 17.9683 37.8079 17.8555C37.8674 17.7422 37.948 17.6556 38.0498 17.5956C38.152 17.5356 38.2676 17.5056 38.3967 17.5056C38.5258 17.5056 38.6412 17.5356 38.743 17.5956C38.8452 17.6556 38.9258 17.7422 38.9848 17.8555C39.0443 17.9683 39.0741 18.1041 39.0741 18.2629ZM38.8056 18.2629C38.8056 18.1511 38.7881 18.0568 38.753 17.98C38.7185 17.9027 38.6705 17.8444 38.6091 17.8051C38.5477 17.7653 38.4769 17.7453 38.3967 17.7453C38.3166 17.7453 38.2458 17.7653 38.1844 17.8051C38.123 17.8444 38.0747 17.9027 38.0397 17.98C38.0052 18.0568 37.9879 18.1511 37.9879 18.2629C37.9879 18.3747 38.0052 18.4692 38.0397 18.5465C38.0747 18.6233 38.123 18.6816 38.1844 18.7214C38.2458 18.7608 38.3166 18.7805 38.3967 18.7805C38.4769 18.7805 38.5477 18.7608 38.6091 18.7214C38.6705 18.6816 38.7185 18.6233 38.753 18.5465C38.7881 18.4692 38.8056 18.3747 38.8056 18.2629ZM40.538 17.5258V19H40.3005L39.6059 17.9958H39.5936V19H39.3266V17.5258H39.5656L40.2595 18.5307H40.2724V17.5258H40.538ZM41.6302 17.9311C41.6235 17.8682 41.5952 17.8192 41.5452 17.7842C41.4958 17.7492 41.4315 17.7317 41.3523 17.7317C41.2967 17.7317 41.2489 17.7401 41.2091 17.7569C41.1693 17.7737 41.1388 17.7965 41.1177 17.8252C41.0966 17.854 41.0858 17.8869 41.0853 17.9239C41.0853 17.9546 41.0922 17.9812 41.1062 18.0038C41.1206 18.0263 41.14 18.0455 41.1645 18.0613C41.1889 18.0767 41.216 18.0897 41.2458 18.1002C41.2756 18.1108 41.3055 18.1197 41.3358 18.1269L41.474 18.1614C41.5297 18.1744 41.5832 18.1919 41.6345 18.214C41.6863 18.236 41.7326 18.2639 41.7734 18.2975C41.8147 18.331 41.8473 18.3716 41.8713 18.4191C41.8953 18.4666 41.9073 18.5223 41.9073 18.5861C41.9073 18.6725 41.8852 18.7485 41.8411 18.8143C41.7969 18.8795 41.7331 18.9307 41.6496 18.9676C41.5666 19.0041 41.4661 19.0223 41.348 19.0223C41.2333 19.0223 41.1337 19.0046 41.0493 18.969C40.9653 18.9335 40.8996 18.8817 40.8521 18.8136C40.805 18.7454 40.7796 18.6624 40.7758 18.5645H41.0385C41.0423 18.6159 41.0582 18.6586 41.086 18.6926C41.1138 18.7267 41.1501 18.7521 41.1947 18.7689C41.2398 18.7857 41.2902 18.7941 41.3459 18.7941C41.4039 18.7941 41.4548 18.7855 41.4985 18.7682C41.5426 18.7505 41.5772 18.726 41.6021 18.6948C41.6271 18.6631 41.6398 18.6262 41.6403 18.5839C41.6398 18.5456 41.6285 18.5139 41.6064 18.4889C41.5844 18.4635 41.5534 18.4424 41.5136 18.4256C41.4742 18.4083 41.4282 18.3929 41.3754 18.3795L41.2077 18.3363C41.0862 18.3051 40.9903 18.2579 40.9197 18.1945C40.8497 18.1307 40.8146 18.046 40.8146 17.9404C40.8146 17.8536 40.8381 17.7775 40.8852 17.7122C40.9327 17.647 40.9972 17.5963 41.0788 17.5603C41.1604 17.5239 41.2528 17.5056 41.3559 17.5056C41.4605 17.5056 41.5522 17.5239 41.6309 17.5603C41.7101 17.5963 41.7722 17.6465 41.8173 17.7108C41.8625 17.7746 41.8857 17.848 41.8872 17.9311H41.6302Z" fill="#B0C9FF"/>
<path d="M3.78503 14.095L7.72243 18.0324L5.22337 20.5314L1.96521 17.2733C1.59008 16.8981 1.59008 16.2899 1.96521 15.9148L3.78503 14.095Z" fill="#B0C9FF"/>
<path d="M5.21448 20.5227L14.4146 11.3226L17.1117 14.0198L8.5909 22.5407C8.21577 22.9158 7.60756 22.9158 7.23244 22.5407L5.21448 20.5227Z" fill="white"/>
<rect x="2.60767" y="6.02209" width="6.5751" height="3.63799" transform="rotate(45 2.60767 6.02209)" fill="white"/>
<path d="M0 8.55945L7.58912 0.97033C8.12502 0.434433 8.99388 0.434433 9.52977 0.97033L11.2566 2.69719L2.69719 11.2566L0 8.55945Z" fill="white"/>
<path d="M13.1389 4.75183L16.3209 7.93384C16.6961 8.30897 16.6961 8.91717 16.3209 9.2923L14.3955 11.2177L10.5343 7.35644L13.1389 4.75183Z" fill="#B0C9FF"/>
<rect x="4.66577" y="13.2251" width="8.30171" height="2.69012" transform="rotate(-45 4.66577 13.2251)" fill="#B0C9FF"/>
</svg>
