<svg width="459" height="252" viewBox="0 0 459 252" fill="none" xmlns="http://www.w3.org/2000/svg">
<path d="M260.686 146.981C252.449 146.981 245.501 145.545 239.841 142.673C234.181 139.801 229.936 135.725 227.106 130.445C224.276 125.123 222.861 118.871 222.861 111.691V54.1617H245.416V110.234C245.416 116.274 246.662 120.772 249.154 123.729C251.646 126.643 255.49 128.1 260.686 128.1C265.796 128.1 269.598 126.643 272.09 123.729C274.582 120.772 275.828 116.274 275.828 110.234V54.1617H298.384V111.691C298.384 118.914 296.969 125.165 294.139 130.445C291.351 135.725 287.148 139.801 281.53 142.673C275.913 145.545 268.964 146.981 260.686 146.981ZM311.815 145.524V54.1617H334.371V145.524H311.815ZM349.197 145.524V54.1617H371.752V145.524H349.197ZM419.144 147.045C411.414 147.045 404.825 145.904 399.376 143.623C393.927 141.3 389.682 137.879 386.641 133.359C383.642 128.797 381.953 123.222 381.573 116.633H404.825C404.909 119.251 405.501 121.553 406.599 123.539C407.739 125.482 409.366 127.023 411.478 128.164C413.632 129.262 416.251 129.811 419.334 129.811C421.953 129.811 424.191 129.473 426.05 128.797C427.908 128.079 429.345 127.023 430.358 125.63C431.372 124.193 431.879 122.483 431.879 120.498C431.879 118.428 431.435 116.717 430.548 115.366C429.704 114.014 428.289 112.916 426.303 112.071C424.318 111.226 421.551 110.487 418.003 109.853C410.569 108.586 404.445 106.981 399.63 105.038C394.857 103.053 391.14 100.286 388.479 96.7383C385.86 93.148 384.55 88.5017 384.55 82.7995C384.55 76.4637 385.881 71.0572 388.542 66.5799C391.245 62.0603 395.173 58.6179 400.327 56.2525C405.522 53.8449 411.773 52.6411 419.081 52.6411C426.134 52.6411 432.196 53.7604 437.264 55.9991C442.375 58.1955 446.367 61.5112 449.239 65.9463C452.111 70.3391 453.801 75.7668 454.308 82.2293H431.182C431.055 79.6527 430.485 77.4563 429.471 75.6401C428.457 73.7816 427.021 72.3666 425.163 71.3951C423.304 70.4236 421.087 69.9378 418.51 69.9378C416.229 69.9378 414.223 70.318 412.491 71.0783C410.759 71.8386 409.408 72.9579 408.436 74.4363C407.465 75.9146 406.979 77.6675 406.979 79.695C406.979 81.5112 407.38 83.0107 408.183 84.1934C409.028 85.3338 410.422 86.3053 412.365 87.1079C414.35 87.9104 417.116 88.6496 420.664 89.3254C428.479 90.8037 434.836 92.5355 439.735 94.5207C444.635 96.506 448.436 99.3571 451.14 103.074C453.843 106.749 455.195 111.649 455.195 117.773C455.195 124.236 453.78 129.663 450.95 134.056C448.12 138.407 444.022 141.659 438.658 143.813C433.294 145.967 426.789 147.045 419.144 147.045Z" fill="#183EB9"/>
<path d="M240.067 169.712H242.954V180.127C242.954 181.268 242.685 182.272 242.145 183.139C241.61 184.005 240.858 184.682 239.888 185.17C238.917 185.653 237.784 185.894 236.486 185.894C235.184 185.894 234.047 185.653 233.077 185.17C232.107 184.682 231.354 184.005 230.82 183.139C230.285 182.272 230.018 181.268 230.018 180.127V169.712H232.906V179.885C232.906 180.549 233.051 181.141 233.342 181.66C233.638 182.179 234.053 182.586 234.587 182.882C235.122 183.172 235.755 183.318 236.486 183.318C237.218 183.318 237.851 183.172 238.385 182.882C238.925 182.586 239.34 182.179 239.631 181.66C239.921 181.141 240.067 180.549 240.067 179.885V169.712ZM259.193 169.712V185.653H256.624L249.113 174.795H248.981V185.653H246.093V169.712H248.677L256.181 180.578H256.321V169.712H259.193ZM265.227 169.712V185.653H262.339V169.712H265.227ZM267.654 172.133V169.712H280.372V172.133H275.445V185.653H272.581V172.133H267.654ZM282.824 185.653V169.712H293.191V172.133H285.711V176.46H292.654V178.881H285.711V183.232H293.254V185.653H282.824ZM301.539 185.653H296.137V169.712H301.648C303.231 169.712 304.59 170.031 305.727 170.67C306.868 171.303 307.745 172.213 308.358 173.402C308.97 174.59 309.276 176.012 309.276 177.667C309.276 179.327 308.967 180.754 308.35 181.948C307.737 183.141 306.853 184.057 305.696 184.695C304.544 185.334 303.158 185.653 301.539 185.653ZM299.025 183.154H301.399C302.509 183.154 303.436 182.952 304.178 182.547C304.92 182.137 305.478 181.528 305.851 180.718C306.225 179.903 306.412 178.886 306.412 177.667C306.412 176.448 306.225 175.436 305.851 174.631C305.478 173.822 304.925 173.217 304.193 172.818C303.467 172.413 302.564 172.211 301.485 172.211H299.025V183.154ZM320.344 169.712V185.653H317.456V169.712H320.344ZM336.571 169.712V185.653H334.002L326.491 174.795H326.359V185.653H323.471V169.712H326.055L333.559 180.578H333.699V169.712H336.571ZM352.817 169.712V185.653H350.249L342.737 174.795H342.605V185.653H339.717V169.712H342.302L349.805 180.578H349.945V169.712H352.817ZM370.207 177.682C370.207 179.4 369.886 180.871 369.242 182.096C368.604 183.315 367.732 184.249 366.627 184.898C365.527 185.546 364.279 185.871 362.883 185.871C361.487 185.871 360.237 185.546 359.132 184.898C358.031 184.244 357.16 183.307 356.516 182.088C355.878 180.863 355.559 179.395 355.559 177.682C355.559 175.965 355.878 174.496 356.516 173.277C357.16 172.052 358.031 171.116 359.132 170.467C360.237 169.819 361.487 169.494 362.883 169.494C364.279 169.494 365.527 169.819 366.627 170.467C367.732 171.116 368.604 172.052 369.242 173.277C369.886 174.496 370.207 175.965 370.207 177.682ZM367.304 177.682C367.304 176.473 367.115 175.454 366.736 174.624C366.362 173.788 365.844 173.158 365.179 172.732C364.515 172.301 363.75 172.086 362.883 172.086C362.017 172.086 361.251 172.301 360.587 172.732C359.923 173.158 359.401 173.788 359.023 174.624C358.649 175.454 358.462 176.473 358.462 177.682C358.462 178.892 358.649 179.914 359.023 180.749C359.401 181.579 359.923 182.21 360.587 182.641C361.251 183.066 362.017 183.279 362.883 183.279C363.75 183.279 364.515 183.066 365.179 182.641C365.844 182.21 366.362 181.579 366.736 180.749C367.115 179.914 367.304 178.892 367.304 177.682ZM374.214 169.712L378.363 182.259H378.526L382.667 169.712H385.843L380.223 185.653H376.658L371.046 169.712H374.214ZM388.127 185.653H385.045L390.657 169.712H394.222L399.841 185.653H396.759L392.501 172.981H392.377L388.127 185.653ZM388.228 179.403H396.635V181.722H388.228V179.403ZM399.314 172.133V169.712H412.032V172.133H407.105V185.653H404.241V172.133H399.314ZM417.372 169.712V185.653H414.484V169.712H417.372ZM434.743 177.682C434.743 179.4 434.421 180.871 433.778 182.096C433.139 183.315 432.268 184.249 431.162 184.898C430.062 185.546 428.814 185.871 427.418 185.871C426.023 185.871 424.772 185.546 423.667 184.898C422.567 184.244 421.695 183.307 421.051 182.088C420.413 180.863 420.094 179.395 420.094 177.682C420.094 175.965 420.413 174.496 421.051 173.277C421.695 172.052 422.567 171.116 423.667 170.467C424.772 169.819 426.023 169.494 427.418 169.494C428.814 169.494 430.062 169.819 431.162 170.467C432.268 171.116 433.139 172.052 433.778 173.277C434.421 174.496 434.743 175.965 434.743 177.682ZM431.839 177.682C431.839 176.473 431.65 175.454 431.271 174.624C430.898 173.788 430.379 173.158 429.715 172.732C429.05 172.301 428.285 172.086 427.418 172.086C426.552 172.086 425.786 172.301 425.122 172.732C424.458 173.158 423.937 173.788 423.558 174.624C423.184 175.454 422.997 176.473 422.997 177.682C422.997 178.892 423.184 179.914 423.558 180.749C423.937 181.579 424.458 182.21 425.122 182.641C425.786 183.066 426.552 183.279 427.418 183.279C428.285 183.279 429.05 183.066 429.715 182.641C430.379 182.21 430.898 181.579 431.271 180.749C431.65 179.914 431.839 178.892 431.839 177.682ZM450.573 169.712V185.653H448.004L440.493 174.795H440.361V185.653H437.473V169.712H440.057L447.56 180.578H447.7V169.712H450.573ZM185.189 213.653H182.107L187.719 197.712H191.283L196.903 213.653H193.821L189.563 200.981H189.439L185.189 213.653ZM185.29 207.403H193.696V209.722H185.29V207.403ZM212.102 197.712V213.653H209.534L202.023 202.795H201.89V213.653H199.003V197.712H201.587L209.09 208.578H209.23V197.712H212.102ZM220.651 213.653H215.249V197.712H220.76C222.342 197.712 223.702 198.031 224.838 198.67C225.98 199.303 226.857 200.213 227.469 201.402C228.081 202.59 228.388 204.012 228.388 205.667C228.388 207.327 228.079 208.754 227.461 209.948C226.849 211.141 225.964 212.057 224.807 212.695C223.655 213.334 222.27 213.653 220.651 213.653ZM218.137 211.154H220.511C221.621 211.154 222.547 210.952 223.289 210.547C224.031 210.137 224.589 209.528 224.963 208.718C225.336 207.903 225.523 206.886 225.523 205.667C225.523 204.448 225.336 203.436 224.963 202.631C224.589 201.822 224.037 201.217 223.305 200.818C222.578 200.413 221.675 200.211 220.596 200.211H218.137V211.154ZM239.456 197.712V213.653H236.568V197.712H239.456ZM242.583 197.712H246.116L250.849 209.263H251.036L255.768 197.712H259.302V213.653H256.531V202.701H256.383L251.977 213.606H249.907L245.502 202.678H245.354V213.653H242.583V197.712ZM262.446 213.653V197.712H268.424C269.649 197.712 270.676 197.94 271.506 198.397C272.342 198.854 272.972 199.482 273.398 200.281C273.828 201.075 274.044 201.978 274.044 202.989C274.044 204.012 273.828 204.92 273.398 205.714C272.967 206.508 272.331 207.133 271.491 207.589C270.65 208.041 269.615 208.267 268.385 208.267H264.423V205.893H267.996C268.712 205.893 269.298 205.768 269.755 205.519C270.212 205.27 270.549 204.927 270.767 204.492C270.99 204.056 271.102 203.555 271.102 202.989C271.102 202.424 270.99 201.926 270.767 201.495C270.549 201.064 270.209 200.73 269.747 200.491C269.291 200.247 268.702 200.125 267.98 200.125H265.334V213.653H262.446ZM276.823 213.653H273.74L279.352 197.712H282.917L288.537 213.653H285.454L281.197 200.981H281.072L276.823 213.653ZM276.924 207.403H285.33V209.722H276.924V207.403ZM303.532 203.091H300.621C300.538 202.613 300.385 202.19 300.161 201.822C299.938 201.448 299.661 201.132 299.329 200.872C298.997 200.613 298.618 200.418 298.192 200.288C297.772 200.154 297.318 200.086 296.83 200.086C295.964 200.086 295.196 200.304 294.526 200.74C293.857 201.171 293.333 201.804 292.954 202.639C292.575 203.469 292.386 204.484 292.386 205.682C292.386 206.902 292.575 207.929 292.954 208.765C293.338 209.595 293.862 210.223 294.526 210.648C295.196 211.069 295.961 211.279 296.822 211.279C297.3 211.279 297.746 211.217 298.161 211.092C298.581 210.962 298.958 210.773 299.29 210.524C299.627 210.275 299.91 209.969 300.138 209.605C300.372 209.242 300.532 208.827 300.621 208.36L303.532 208.376C303.423 209.133 303.187 209.844 302.823 210.508C302.465 211.172 301.996 211.759 301.415 212.267C300.833 212.771 300.154 213.165 299.375 213.45C298.597 213.731 297.733 213.871 296.783 213.871C295.382 213.871 294.132 213.546 293.032 212.898C291.932 212.249 291.065 211.313 290.432 210.088C289.799 208.863 289.482 207.395 289.482 205.682C289.482 203.965 289.802 202.496 290.44 201.277C291.078 200.052 291.947 199.116 293.047 198.467C294.147 197.819 295.393 197.494 296.783 197.494C297.671 197.494 298.496 197.619 299.259 197.868C300.021 198.117 300.701 198.483 301.298 198.965C301.895 199.443 302.385 200.029 302.769 200.724C303.158 201.415 303.412 202.203 303.532 203.091ZM305.476 200.133V197.712H318.194V200.133H313.267V213.653H310.403V200.133H305.476ZM334.746 202.094C334.673 201.415 334.367 200.885 333.827 200.506C333.293 200.128 332.597 199.938 331.741 199.938C331.139 199.938 330.623 200.029 330.192 200.211C329.762 200.392 329.432 200.639 329.204 200.95C328.975 201.261 328.859 201.617 328.854 202.016C328.854 202.349 328.929 202.637 329.079 202.88C329.235 203.124 329.445 203.332 329.71 203.503C329.974 203.669 330.268 203.809 330.589 203.923C330.911 204.038 331.235 204.134 331.562 204.211L333.057 204.585C333.659 204.725 334.237 204.915 334.792 205.153C335.353 205.392 335.854 205.693 336.295 206.056C336.741 206.419 337.094 206.858 337.353 207.372C337.613 207.885 337.742 208.487 337.742 209.177C337.742 210.111 337.504 210.934 337.026 211.645C336.549 212.35 335.859 212.903 334.956 213.303C334.058 213.697 332.971 213.894 331.695 213.894C330.454 213.894 329.378 213.702 328.464 213.318C327.556 212.934 326.845 212.374 326.332 211.637C325.823 210.9 325.548 210.002 325.507 208.944H328.348C328.389 209.499 328.56 209.961 328.861 210.329C329.162 210.698 329.554 210.973 330.037 211.154C330.524 211.336 331.069 211.427 331.671 211.427C332.299 211.427 332.849 211.333 333.321 211.147C333.799 210.955 334.172 210.69 334.442 210.353C334.712 210.01 334.849 209.611 334.855 209.154C334.849 208.739 334.728 208.396 334.489 208.127C334.25 207.852 333.915 207.623 333.485 207.442C333.059 207.255 332.561 207.089 331.99 206.943L330.177 206.476C328.864 206.139 327.826 205.628 327.063 204.943C326.306 204.253 325.927 203.337 325.927 202.195C325.927 201.256 326.181 200.434 326.69 199.728C327.203 199.022 327.901 198.475 328.783 198.086C329.666 197.691 330.664 197.494 331.78 197.494C332.911 197.494 333.902 197.691 334.753 198.086C335.61 198.475 336.282 199.017 336.769 199.713C337.257 200.403 337.509 201.197 337.524 202.094H334.746ZM354.561 205.682C354.561 207.4 354.239 208.871 353.595 210.096C352.957 211.315 352.085 212.249 350.98 212.898C349.88 213.546 348.632 213.871 347.236 213.871C345.84 213.871 344.59 213.546 343.485 212.898C342.385 212.244 341.513 211.307 340.869 210.088C340.231 208.863 339.912 207.395 339.912 205.682C339.912 203.965 340.231 202.496 340.869 201.277C341.513 200.052 342.385 199.116 343.485 198.467C344.59 197.819 345.84 197.494 347.236 197.494C348.632 197.494 349.88 197.819 350.98 198.467C352.085 199.116 352.957 200.052 353.595 201.277C354.239 202.496 354.561 203.965 354.561 205.682ZM351.657 205.682C351.657 204.473 351.468 203.454 351.089 202.624C350.716 201.788 350.197 201.158 349.532 200.732C348.868 200.301 348.103 200.086 347.236 200.086C346.37 200.086 345.604 200.301 344.94 200.732C344.276 201.158 343.754 201.788 343.376 202.624C343.002 203.454 342.815 204.473 342.815 205.682C342.815 206.892 343.002 207.914 343.376 208.749C343.754 209.579 344.276 210.21 344.94 210.641C345.604 211.066 346.37 211.279 347.236 211.279C348.103 211.279 348.868 211.066 349.532 210.641C350.197 210.21 350.716 209.579 351.089 208.749C351.468 207.914 351.657 206.892 351.657 205.682ZM357.291 213.653V197.712H360.178V211.232H367.199V213.653H357.291ZM379.754 197.712H382.642V208.127C382.642 209.268 382.372 210.272 381.832 211.139C381.298 212.005 380.545 212.682 379.575 213.17C378.605 213.653 377.471 213.894 376.174 213.894C374.871 213.894 373.735 213.653 372.764 213.17C371.794 212.682 371.042 212.005 370.507 211.139C369.973 210.272 369.705 209.268 369.705 208.127V197.712H372.593V207.885C372.593 208.549 372.738 209.141 373.029 209.66C373.325 210.179 373.74 210.586 374.274 210.882C374.809 211.172 375.442 211.318 376.174 211.318C376.905 211.318 377.538 211.172 378.073 210.882C378.612 210.586 379.028 210.179 379.318 209.66C379.609 209.141 379.754 208.549 379.754 207.885V197.712ZM385.08 200.133V197.712H397.798V200.133H392.871V213.653H390.007V200.133H385.08ZM403.138 197.712V213.653H400.25V197.712H403.138ZM420.509 205.682C420.509 207.4 420.187 208.871 419.543 210.096C418.905 211.315 418.033 212.249 416.928 212.898C415.828 213.546 414.58 213.871 413.184 213.871C411.788 213.871 410.538 213.546 409.433 212.898C408.333 212.244 407.461 211.307 406.817 210.088C406.179 208.863 405.86 207.395 405.86 205.682C405.86 203.965 406.179 202.496 406.817 201.277C407.461 200.052 408.333 199.116 409.433 198.467C410.538 197.819 411.788 197.494 413.184 197.494C414.58 197.494 415.828 197.819 416.928 198.467C418.033 199.116 418.905 200.052 419.543 201.277C420.187 202.496 420.509 203.965 420.509 205.682ZM417.605 205.682C417.605 204.473 417.416 203.454 417.037 202.624C416.664 201.788 416.145 201.158 415.48 200.732C414.816 200.301 414.051 200.086 413.184 200.086C412.318 200.086 411.552 200.301 410.888 200.732C410.224 201.158 409.702 201.788 409.324 202.624C408.95 203.454 408.763 204.473 408.763 205.682C408.763 206.892 408.95 207.914 409.324 208.749C409.702 209.579 410.224 210.21 410.888 210.641C411.552 211.066 412.318 211.279 413.184 211.279C414.051 211.279 414.816 211.066 415.48 210.641C416.145 210.21 416.664 209.579 417.037 208.749C417.416 207.914 417.605 206.892 417.605 205.682ZM436.338 197.712V213.653H433.77L426.259 202.795H426.126V213.653H423.239V197.712H425.823L433.326 208.578H433.466V197.712H436.338ZM448.148 202.094C448.075 201.415 447.769 200.885 447.229 200.506C446.695 200.128 446 199.938 445.143 199.938C444.542 199.938 444.025 200.029 443.595 200.211C443.164 200.392 442.834 200.639 442.606 200.95C442.378 201.261 442.261 201.617 442.256 202.016C442.256 202.349 442.331 202.637 442.482 202.88C442.637 203.124 442.847 203.332 443.112 203.503C443.377 203.669 443.67 203.809 443.992 203.923C444.313 204.038 444.638 204.134 444.964 204.211L446.459 204.585C447.061 204.725 447.639 204.915 448.195 205.153C448.755 205.392 449.256 205.693 449.697 206.056C450.143 206.419 450.496 206.858 450.755 207.372C451.015 207.885 451.145 208.487 451.145 209.177C451.145 210.111 450.906 210.934 450.428 211.645C449.951 212.35 449.261 212.903 448.358 213.303C447.46 213.697 446.373 213.894 445.097 213.894C443.857 213.894 442.78 213.702 441.867 213.318C440.959 212.934 440.248 212.374 439.734 211.637C439.225 210.9 438.95 210.002 438.909 208.944H441.75C441.791 209.499 441.963 209.961 442.264 210.329C442.565 210.698 442.956 210.973 443.439 211.154C443.927 211.336 444.471 211.427 445.073 211.427C445.701 211.427 446.251 211.333 446.724 211.147C447.201 210.955 447.575 210.69 447.844 210.353C448.114 210.01 448.252 209.611 448.257 209.154C448.252 208.739 448.13 208.396 447.891 208.127C447.652 207.852 447.318 207.623 446.887 207.442C446.461 207.255 445.963 207.089 445.393 206.943L443.579 206.476C442.266 206.139 441.228 205.628 440.466 204.943C439.708 204.253 439.329 203.337 439.329 202.195C439.329 201.256 439.583 200.434 440.092 199.728C440.606 199.022 441.304 198.475 442.186 198.086C443.068 197.691 444.067 197.494 445.182 197.494C446.314 197.494 447.305 197.691 448.156 198.086C449.012 198.475 449.684 199.017 450.172 199.713C450.659 200.403 450.911 201.197 450.927 202.094H448.148Z" fill="#222B75"/>
<path d="M41.5078 153.308L84.0832 195.883L57.0607 222.906L21.8298 187.675C17.7735 183.619 17.7735 177.042 21.8298 172.986L41.5078 153.308Z" fill="#222B75"/>
<path d="M56.9646 222.812L156.446 123.33L185.611 152.495L93.4741 244.632C89.4178 248.688 82.8413 248.688 78.785 244.632L56.9646 222.812Z" fill="#183EB9"/>
<rect x="28.7778" y="66.0151" width="71.0972" height="39.3379" transform="rotate(45 28.7778 66.0151)" fill="#183EB9"/>
<path d="M0.579834 93.4517L82.6417 11.3898C88.4364 5.59507 97.8315 5.59508 103.626 11.3898L122.299 30.0625L29.7448 122.617L0.579834 93.4517Z" fill="#183EB9"/>
<path d="M142.653 52.2793L177.06 86.6867C181.116 90.743 181.116 97.3195 177.06 101.376L156.241 122.195L114.489 80.4432L142.653 52.2793Z" fill="#222B75"/>
<rect x="51.0312" y="143.902" width="89.7672" height="29.0885" transform="rotate(-45 51.0312 143.902)" fill="#222B75"/>
</svg>
